<mxfile host="65bd71144e">
    <diagram id="9BqYEs9FAMmd7booA-Ra" name="Page-1">
        <mxGraphModel dx="703" dy="580" grid="1" gridSize="10" guides="1" tooltips="1" connect="1" arrows="1" fold="1" page="1" pageScale="1" pageWidth="827" pageHeight="1169" math="0" shadow="0">
            <root>
                <mxCell id="0"/>
                <mxCell id="1" parent="0"/>
                <mxCell id="5" value="&lt;br&gt;&lt;br&gt;解決策" style="ellipse;whiteSpace=wrap;html=1;fillColor=none;" vertex="1" parent="1">
                    <mxGeometry x="250" y="314" width="120" height="80" as="geometry"/>
                </mxCell>
                <mxCell id="6" value="課題&lt;br&gt;&lt;br&gt;" style="ellipse;whiteSpace=wrap;html=1;fillColor=none;" vertex="1" parent="1">
                    <mxGeometry x="251" y="271" width="120" height="80" as="geometry"/>
                </mxCell>
                <mxCell id="2" value="課題" style="rounded=0;whiteSpace=wrap;html=1;" vertex="1" parent="1">
                    <mxGeometry x="160" y="170" width="70" height="30" as="geometry"/>
                </mxCell>
                <mxCell id="3" value="&lt;b&gt;&lt;font color=&quot;#ff0000&quot;&gt;価値&lt;/font&gt;&lt;/b&gt;" style="text;html=1;strokeColor=none;fillColor=none;align=center;verticalAlign=middle;whiteSpace=wrap;rounded=0;" vertex="1" parent="1">
                    <mxGeometry x="281" y="319" width="60" height="30" as="geometry"/>
                </mxCell>
                <mxCell id="4" value="解決策" style="rounded=0;whiteSpace=wrap;html=1;" vertex="1" parent="1">
                    <mxGeometry x="160" y="220" width="70" height="30" as="geometry"/>
                </mxCell>
                <mxCell id="7" value="" style="endArrow=classic;html=1;fontColor=#FF0000;" edge="1" parent="1">
                    <mxGeometry width="50" height="50" relative="1" as="geometry">
                        <mxPoint x="370" y="310" as="sourcePoint"/>
                        <mxPoint x="440" y="320" as="targetPoint"/>
                    </mxGeometry>
                </mxCell>
                <mxCell id="8" value="" style="endArrow=classic;html=1;fontColor=#FF0000;" edge="1" parent="1" source="5">
                    <mxGeometry width="50" height="50" relative="1" as="geometry">
                        <mxPoint x="360" y="310" as="sourcePoint"/>
                        <mxPoint x="440" y="340" as="targetPoint"/>
                    </mxGeometry>
                </mxCell>
                <mxCell id="9" value="&lt;font style=&quot;font-size: 12px;&quot;&gt;解像度・・・物事への理解度や、物事を表現するときの精細さ、思考の明晰さ&lt;/font&gt;" style="text;html=1;strokeColor=none;fillColor=none;align=left;verticalAlign=middle;whiteSpace=wrap;rounded=0;fontSize=15;aspect=fixed;" vertex="1" parent="1">
                    <mxGeometry x="460" y="310" width="440" height="35.68" as="geometry"/>
                </mxCell>
                <mxCell id="34" value="" style="group" vertex="1" connectable="0" parent="1">
                    <mxGeometry x="460" y="394" width="300" height="239" as="geometry"/>
                </mxCell>
                <mxCell id="11" value="" style="rounded=0;whiteSpace=wrap;html=1;" vertex="1" parent="34">
                    <mxGeometry y="93" width="60" height="30" as="geometry"/>
                </mxCell>
                <mxCell id="12" value="" style="rounded=0;whiteSpace=wrap;html=1;" vertex="1" parent="34">
                    <mxGeometry x="80" y="67" width="60" height="30" as="geometry"/>
                </mxCell>
                <mxCell id="13" value="" style="rounded=0;whiteSpace=wrap;html=1;" vertex="1" parent="34">
                    <mxGeometry x="80" y="113" width="60" height="30" as="geometry"/>
                </mxCell>
                <mxCell id="14" value="" style="rounded=0;whiteSpace=wrap;html=1;" vertex="1" parent="34">
                    <mxGeometry x="160" y="43" width="60" height="30" as="geometry"/>
                </mxCell>
                <mxCell id="15" value="" style="rounded=0;whiteSpace=wrap;html=1;" vertex="1" parent="34">
                    <mxGeometry x="160" y="83" width="60" height="30" as="geometry"/>
                </mxCell>
                <mxCell id="16" value="" style="rounded=0;whiteSpace=wrap;html=1;" vertex="1" parent="34">
                    <mxGeometry x="160" y="133" width="60" height="30" as="geometry"/>
                </mxCell>
                <mxCell id="17" value="" style="endArrow=none;html=1;fontColor=#FF0000;entryX=1;entryY=0.5;entryDx=0;entryDy=0;exitX=0;exitY=0.5;exitDx=0;exitDy=0;" edge="1" parent="34" source="12" target="11">
                    <mxGeometry width="50" height="50" relative="1" as="geometry">
                        <mxPoint x="50" y="73" as="sourcePoint"/>
                        <mxPoint x="-60" y="-17" as="targetPoint"/>
                    </mxGeometry>
                </mxCell>
                <mxCell id="18" value="" style="endArrow=none;html=1;fontColor=#FF0000;entryX=1;entryY=0.5;entryDx=0;entryDy=0;exitX=0;exitY=0.5;exitDx=0;exitDy=0;" edge="1" parent="34" source="14" target="12">
                    <mxGeometry width="50" height="50" relative="1" as="geometry">
                        <mxPoint x="90" y="92" as="sourcePoint"/>
                        <mxPoint x="70" y="118" as="targetPoint"/>
                    </mxGeometry>
                </mxCell>
                <mxCell id="24" value="" style="endArrow=none;html=1;fontColor=#FF0000;entryX=1;entryY=0.5;entryDx=0;entryDy=0;exitX=0;exitY=0.5;exitDx=0;exitDy=0;" edge="1" parent="34" source="15" target="12">
                    <mxGeometry width="50" height="50" relative="1" as="geometry">
                        <mxPoint x="170" y="68" as="sourcePoint"/>
                        <mxPoint x="150" y="92" as="targetPoint"/>
                    </mxGeometry>
                </mxCell>
                <mxCell id="25" value="" style="endArrow=none;html=1;fontColor=#FF0000;entryX=1;entryY=0.5;entryDx=0;entryDy=0;exitX=0;exitY=0.5;exitDx=0;exitDy=0;" edge="1" parent="34" source="16" target="13">
                    <mxGeometry width="50" height="50" relative="1" as="geometry">
                        <mxPoint x="170" y="108" as="sourcePoint"/>
                        <mxPoint x="150" y="92" as="targetPoint"/>
                    </mxGeometry>
                </mxCell>
                <mxCell id="26" value="" style="endArrow=none;html=1;fontColor=#FF0000;exitX=0;exitY=0.5;exitDx=0;exitDy=0;entryX=1;entryY=0.5;entryDx=0;entryDy=0;" edge="1" parent="34" source="13" target="11">
                    <mxGeometry width="50" height="50" relative="1" as="geometry">
                        <mxPoint x="170" y="158" as="sourcePoint"/>
                        <mxPoint x="60" y="103" as="targetPoint"/>
                    </mxGeometry>
                </mxCell>
                <mxCell id="27" value="" style="endArrow=classic;startArrow=classic;html=1;fontColor=#FF0000;" edge="1" parent="34">
                    <mxGeometry width="50" height="50" relative="1" as="geometry">
                        <mxPoint y="29" as="sourcePoint"/>
                        <mxPoint x="220" y="29" as="targetPoint"/>
                    </mxGeometry>
                </mxCell>
                <mxCell id="28" value="深さ" style="text;html=1;strokeColor=none;fillColor=none;align=center;verticalAlign=middle;whiteSpace=wrap;rounded=0;fontStyle=1" vertex="1" parent="34">
                    <mxGeometry x="80" width="60" height="30" as="geometry"/>
                </mxCell>
                <mxCell id="29" value="" style="endArrow=classic;startArrow=classic;html=1;fontColor=#FF0000;" edge="1" parent="34">
                    <mxGeometry width="50" height="50" relative="1" as="geometry">
                        <mxPoint x="240" y="39" as="sourcePoint"/>
                        <mxPoint x="240" y="169" as="targetPoint"/>
                    </mxGeometry>
                </mxCell>
                <mxCell id="30" value="広さ" style="text;html=1;strokeColor=none;fillColor=none;align=center;verticalAlign=middle;whiteSpace=wrap;rounded=0;fontStyle=1" vertex="1" parent="34">
                    <mxGeometry x="240" y="83" width="60" height="30" as="geometry"/>
                </mxCell>
                <mxCell id="31" value="構造" style="text;html=1;strokeColor=none;fillColor=none;align=center;verticalAlign=middle;whiteSpace=wrap;rounded=0;fontStyle=1" vertex="1" parent="34">
                    <mxGeometry y="59" width="60" height="30" as="geometry"/>
                </mxCell>
                <mxCell id="32" value="" style="shape=flexArrow;endArrow=classic;html=1;fontColor=#FF0000;" edge="1" parent="34">
                    <mxGeometry width="50" height="50" relative="1" as="geometry">
                        <mxPoint x="10" y="209" as="sourcePoint"/>
                        <mxPoint x="220" y="209" as="targetPoint"/>
                    </mxGeometry>
                </mxCell>
                <mxCell id="33" value="時間" style="text;html=1;strokeColor=none;fillColor=none;align=center;verticalAlign=middle;whiteSpace=wrap;rounded=0;fontStyle=1" vertex="1" parent="34">
                    <mxGeometry x="80" y="209" width="60" height="30" as="geometry"/>
                </mxCell>
                <mxCell id="36" value="&lt;font style=&quot;font-size: 10px;&quot;&gt;物事への理解度や、物事を表現するときの精細さ、思考の明晰さ&lt;/font&gt;" style="text;html=1;strokeColor=none;fillColor=none;align=left;verticalAlign=middle;whiteSpace=wrap;rounded=0;fontSize=15;" vertex="1" parent="1">
                    <mxGeometry x="530" y="220" width="310" height="30" as="geometry"/>
                </mxCell>
                <mxCell id="37" value="&lt;b style=&quot;&quot;&gt;&lt;font style=&quot;font-size: 14px;&quot;&gt;解像度が高い状態とは&lt;/font&gt;&lt;/b&gt;&lt;br&gt;&lt;span style=&quot;font-size: 12px;&quot;&gt;相手の持つ&lt;/span&gt;&lt;b style=&quot;font-size: 12px;&quot;&gt;課題&lt;/b&gt;&lt;span style=&quot;font-size: 12px;&quot;&gt;を、&lt;/span&gt;&lt;b style=&quot;font-size: 12px;&quot;&gt;時間&lt;/b&gt;&lt;span style=&quot;font-size: 12px;&quot;&gt;軸を考慮に入れながら、&lt;/span&gt;&lt;b style=&quot;font-size: 12px;&quot;&gt;深く&lt;/b&gt;&lt;span style=&quot;font-size: 12px;&quot;&gt;、&lt;/span&gt;&lt;b style=&quot;font-size: 12px;&quot;&gt;広く&lt;/b&gt;&lt;span style=&quot;font-size: 12px;&quot;&gt;、&lt;/span&gt;&lt;b style=&quot;font-size: 12px;&quot;&gt;構造&lt;/b&gt;&lt;span style=&quot;font-size: 12px;&quot;&gt;的に捉えて、その&lt;/span&gt;&lt;b style=&quot;font-size: 12px;&quot;&gt;課題&lt;/b&gt;&lt;span style=&quot;font-size: 12px;&quot;&gt;に最も効果的な&lt;/span&gt;&lt;b style=&quot;font-size: 12px;&quot;&gt;解決策&lt;/b&gt;&lt;span style=&quot;font-size: 12px;&quot;&gt;を提供していることが、解像度が高い状態&lt;/span&gt;" style="text;html=1;strokeColor=none;fillColor=none;align=left;verticalAlign=middle;whiteSpace=wrap;rounded=0;fontSize=15;aspect=fixed;" vertex="1" parent="1">
                    <mxGeometry x="465" y="650" width="493.27" height="40" as="geometry"/>
                </mxCell>
                <mxCell id="38" value="&lt;font style=&quot;font-size: 9px;&quot;&gt;それぞれの具体的な内容&lt;/font&gt;" style="shape=callout;whiteSpace=wrap;html=1;perimeter=calloutPerimeter;fontSize=14;fillColor=#fff2cc;position2=0.17;strokeColor=#d6b656;" vertex="1" parent="1">
                    <mxGeometry x="750" y="430" width="110" height="60" as="geometry"/>
                </mxCell>
            </root>
        </mxGraphModel>
    </diagram>
</mxfile>